<?xml version="1.0" standalone="no"?><!DOCTYPE svg PUBLIC "-//W3C//DTD SVG 1.1//EN" "http://www.w3.org/Graphics/SVG/1.1/DTD/svg11.dtd"><svg t="1740400552211" class="icon" viewBox="0 0 1024 1024" version="1.1" xmlns="http://www.w3.org/2000/svg" p-id="3612" width="24" height="24" xmlns:xlink="http://www.w3.org/1999/xlink"><path d="M791.272283 56.883148h-5.678494A82.850156 82.850156 0 0 0 705.95524 0.00512H307.669407A82.850156 82.850156 0 0 0 228.077403 56.883148h-5.678494A197.862929 197.862929 0 0 0 23.279265 256.002793v568.873374A197.862929 197.862929 0 0 0 222.398909 1023.995811H791.272283a197.862929 197.862929 0 0 0 199.119644-199.119644V256.002793A197.862929 197.862929 0 0 0 791.272283 56.883148z m-511.995345 28.439015c0-17.035481 11.356988-28.392469 28.439014-28.39247h398.239288c17.035481 0 28.392469 11.356988 28.39247 28.39247v56.924573c0 17.035481-11.356988 28.392469-28.39247 28.392469H307.669407c-17.082027 0-28.439014-11.356988-28.439015-28.392469V85.322163z m654.236961 739.600549a140.845265 140.845265 0 0 1-142.241616 142.195071H222.398909a140.845265 140.845265 0 0 1-142.241616-142.241616V256.002793a140.845265 140.845265 0 0 1 142.241616-142.241616v28.485559A83.781057 83.781057 0 0 0 307.669407 227.563779h398.239288A83.781057 83.781057 0 0 0 791.272283 142.246736v-28.485559A140.845265 140.845265 0 0 1 933.513899 256.002793v568.873374z m-179.198371-446.599577a27.461569 27.461569 0 0 1 0 39.796002l-301.518713 301.518714c0 2.839247-2.839247 5.678494-5.678494 8.51774a27.461569 27.461569 0 0 1-39.842547 0l-133.67733-130.791538a27.461569 27.461569 0 0 1 0-39.842547 27.461569 27.461569 0 0 1 39.796002 0l110.963354 110.91681 287.275934-287.275934c11.356988-11.403533 31.278261-11.403533 42.681794-2.839247z" fill="#ffffff" p-id="3613" data-spm-anchor-id="a313x.search_index.0.i0.5dc23a81KVzGDo" class=""></path></svg>